<mxfile host="app.diagrams.net" modified="2020-11-10T11:15:38.505Z" agent="5.0 (Macintosh; Intel Mac OS X 10_15_5) AppleWebKit/537.36 (KHTML, like Gecko) Chrome/86.0.4240.183 Safari/537.36" etag="Gd8AJgzVaBeFxWt8Aqvw" version="13.9.3" type="github">
  <diagram id="RWIlEikgAxZpn-iXI4qG" name="第 1 页">
    <mxGraphModel dx="783" dy="453" grid="1" gridSize="10" guides="1" tooltips="1" connect="1" arrows="1" fold="1" page="1" pageScale="1" pageWidth="827" pageHeight="1169" math="0" shadow="0">
      <root>
        <mxCell id="0" />
        <mxCell id="1" parent="0" />
        <mxCell id="jGb68UIOUKXZeZAfSbQG-3" value="" style="edgeStyle=orthogonalEdgeStyle;rounded=0;orthogonalLoop=1;jettySize=auto;html=1;" edge="1" parent="1" source="jGb68UIOUKXZeZAfSbQG-1" target="jGb68UIOUKXZeZAfSbQG-2">
          <mxGeometry relative="1" as="geometry" />
        </mxCell>
        <mxCell id="jGb68UIOUKXZeZAfSbQG-1" value="" style="rounded=0;whiteSpace=wrap;html=1;" vertex="1" parent="1">
          <mxGeometry x="80" y="130" width="120" height="60" as="geometry" />
        </mxCell>
        <mxCell id="jGb68UIOUKXZeZAfSbQG-2" value="" style="rounded=0;whiteSpace=wrap;html=1;" vertex="1" parent="1">
          <mxGeometry x="280" y="130" width="120" height="60" as="geometry" />
        </mxCell>
      </root>
    </mxGraphModel>
  </diagram>
</mxfile>
